<svg version="1.1" xmlns="http://www.w3.org/2000/svg" width="256" height="223">
  <path d="M0 0 C1.15312683 0.57195602 2.30625366 1.14391205 3.49432373 1.73320007 C4.13572296 2.04878876 4.77712219 2.36437744 5.43795776 2.68952942 C7.54262604 3.72803881 9.64120101 4.77820565 11.73944092 5.82963562 C13.20563569 6.55884371 14.67200809 7.28769475 16.1385498 8.01620483 C19.2042249 9.54159666 22.2667423 11.07311932 25.32733154 12.60868835 C29.25041216 14.57603777 33.1823111 16.52499916 37.11693192 18.46914387 C40.14425603 19.96808396 43.16597436 21.47805366 46.18618011 22.99127769 C47.63399543 23.71467192 49.08370622 24.43428533 50.53531647 25.15003395 C52.56143738 26.1507696 54.5793466 27.16645086 56.59588623 28.18632507 C57.74583069 28.76066788 58.89577515 29.33501068 60.08056641 29.92675781 C62.81882032 31.67460213 63.74713726 32.63126176 64.78631592 35.65385437 C62.0472202 38.96317076 58.38823083 40.51817991 54.59881592 42.34135437 C53.31347883 42.96989094 52.02833388 43.59882055 50.74334717 44.22807312 C50.03204147 44.57480576 49.32073578 44.92153839 48.58787537 45.27877808 C45.26021604 46.91207751 41.94281437 48.56551062 38.62738037 50.22343445 C37.93031542 50.57199242 37.23325047 50.92055038 36.51506233 51.27967072 C30.53297712 54.27417431 24.56208207 57.29053368 18.59373951 60.31231403 C11.82480124 63.73919624 5.05016071 67.1546737 -1.72672462 70.56581116 C-6.25926684 72.84785317 -10.78940365 75.13444337 -15.3147583 77.43070984 C-19.73700758 79.67441053 -24.16500625 81.90635689 -28.59724045 84.13026428 C-30.27466278 84.9745019 -31.94997358 85.82294901 -33.62306595 86.67573547 C-35.95200865 87.86197198 -38.28802187 89.0329913 -40.62628174 90.20072937 C-41.30893097 90.55283981 -41.9915802 90.90495026 -42.69491577 91.26773071 C-47.46327387 93.62125218 -51.22562019 94.63731128 -56.36437988 92.94599915 C-57.02008972 92.6144986 -57.67579956 92.28299805 -58.35137939 91.94145203 C-59.1052594 91.56751312 -59.8591394 91.19357422 -60.63586426 90.80830383 C-61.82680695 90.19431229 -61.82680695 90.19431229 -63.04180908 89.56791687 C-63.87202576 89.15093536 -64.70224243 88.73395386 -65.55761719 88.30433655 C-67.30518583 87.42384868 -69.04987435 86.53762385 -70.79180908 85.64604187 C-73.46273718 84.2793389 -76.14188747 82.93002036 -78.82305908 81.58354187 C-80.52148012 80.72516411 -82.21941427 79.86582216 -83.91680908 79.00541687 C-84.7188678 78.60013763 -85.52092651 78.1948584 -86.34729004 77.77729797 C-87.45919708 77.20693314 -87.45919708 77.20693314 -88.59356689 76.62504578 C-89.57235809 76.12540817 -89.57235809 76.12540817 -90.57092285 75.61567688 C-92.21368408 74.65385437 -92.21368408 74.65385437 -94.21368408 72.65385437 C-94.65967006 68.27359688 -94.62786494 63.87837244 -94.63922119 59.47807312 C-94.65110532 57.29333432 -94.70025746 55.11143294 -94.75079346 52.92729187 C-94.76025946 51.53668065 -94.76749366 50.14605208 -94.77227783 48.75541687 C-94.78573242 47.49036316 -94.79918701 46.22530945 -94.81304932 44.92192078 C-94.02800726 40.641443 -92.7456579 40.11292266 -89.21368408 37.65385437 C-86.65802556 36.17067618 -84.0386248 34.83582644 -81.39752197 33.51200867 C-80.62614395 33.11967545 -79.85476593 32.72734222 -79.06001282 32.32312012 C-76.52205052 31.03487185 -73.97961882 29.75579082 -71.43634033 28.47807312 C-69.66421008 27.58464492 -67.89211073 26.69115545 -66.12004089 25.79760742 C-62.41107887 23.92965344 -58.69947645 22.06706008 -54.98638916 20.20732117 C-50.22968718 17.8235226 -45.48350604 15.41952509 -40.73952579 13.01053143 C-37.08605723 11.15962307 -33.42549314 9.32311021 -29.76281548 7.49050331 C-28.00949696 6.61022801 -26.25882771 5.72465522 -24.51091194 4.83370018 C-22.06765856 3.59012538 -19.61511037 2.36715316 -17.15924072 1.14872742 C-16.44060852 0.77738678 -15.72197632 0.40604614 -14.98156738 0.02345276 C-9.08569275 -2.85743744 -5.90683839 -2.47425213 0 0 Z " fill="#010101" transform="translate(142.21368408203125,17.346145629882813)"/>
  <path d="M0 0 C1.38196134 0.75115315 2.75938499 1.51069842 4.1328125 2.27734375 C5.63449081 3.09545176 7.13712027 3.91181592 8.640625 4.7265625 C9.4027832 5.14083496 10.16494141 5.55510742 10.95019531 5.98193359 C15.24618402 8.27718783 19.61896687 10.41835103 23.99169922 12.56274414 C25.75418136 13.4325137 27.50639926 14.32299507 29.2578125 15.21484375 C30.23234375 15.70210937 31.206875 16.189375 32.2109375 16.69140625 C33.22414062 17.44550781 33.22414062 17.44550781 34.2578125 18.21484375 C34.2578125 19.53484375 34.2578125 20.85484375 34.2578125 22.21484375 C20.26415235 29.57239227 6.2166014 36.80465824 -7.93691635 43.84979057 C-10.89948117 45.3245134 -13.86066387 46.80198195 -16.82156372 48.28004456 C-23.08562052 51.40645512 -29.35128322 54.5296379 -35.6171875 57.65234375 C-42.94018889 61.30197188 -50.26249485 64.95298244 -57.5831337 68.60734749 C-60.4831355 70.05413831 -63.38434061 71.49849503 -66.28561401 72.94273376 C-68.07051423 73.83336706 -69.85535814 74.72411322 -71.64013672 75.61499023 C-72.43191315 76.00829529 -73.22368958 76.40160034 -74.03945923 76.80682373 C-78.71149661 79.14262379 -83.27667356 81.6086092 -87.79655266 84.22789955 C-90.70912009 85.7053307 -92.53847169 85.82340178 -95.7421875 85.21484375 C-98.64772435 84.09281359 -101.35723303 82.68655261 -104.1015625 81.21875 C-104.91168793 80.79838974 -105.72181335 80.37802948 -106.55648804 79.94493103 C-109.20759757 78.56668853 -111.84972172 77.17207589 -114.4921875 75.77734375 C-117.25526585 74.33514833 -120.02052609 72.8972025 -122.78604126 71.45968628 C-124.66481224 70.48294101 -126.54288013 69.50484222 -128.42025757 68.52542114 C-134.50436578 65.35630287 -140.61716805 62.25323513 -146.765625 59.2109375 C-147.5445813 58.8251503 -148.3235376 58.4393631 -149.12609863 58.04188538 C-152.0891347 56.57643497 -155.05317739 55.11319231 -158.02233887 53.66018677 C-173.24304477 46.20800386 -173.24304477 46.20800386 -177.7421875 42.21484375 C-177.7421875 40.89484375 -177.7421875 39.57484375 -177.7421875 38.21484375 C-174.38145988 36.33389295 -171.00170099 34.49009876 -167.6171875 32.65234375 C-166.66585937 32.11931641 -165.71453125 31.58628906 -164.734375 31.03710938 C-163.3421875 30.2878418 -163.3421875 30.2878418 -161.921875 29.5234375 C-161.07351074 29.05736084 -160.22514648 28.59128418 -159.35107422 28.11108398 C-154.59160825 26.47604753 -151.00955974 27.98176513 -146.66796875 30.08837891 C-145.12644041 30.88631719 -143.58886089 31.69191663 -142.0546875 32.50390625 C-140.37001363 33.37152487 -138.68511078 34.23869901 -137 35.10546875 C-134.3635862 36.47337289 -131.73000888 37.84624147 -129.10058594 39.22753906 C-126.55065542 40.562945 -123.99111674 41.87822431 -121.4296875 43.19140625 C-120.64827393 43.60903229 -119.86686035 44.02665833 -119.06176758 44.4569397 C-115.69508373 46.17098518 -113.45805622 47.22485905 -109.63598633 47.17138672 C-106.18469069 46.03056361 -102.97870647 44.59180068 -99.75390625 42.93359375 C-99.09801514 42.60416275 -98.44212402 42.27473175 -97.76635742 41.93531799 C-95.65007153 40.86965841 -93.53988048 39.79251051 -91.4296875 38.71484375 C-89.96943749 37.97657692 -88.50890572 37.23886713 -87.0480957 36.50170898 C-79.14690045 32.50523109 -71.28874154 28.43563035 -63.49438477 24.23413086 C-57.75691123 21.16350504 -51.88236995 18.41567243 -45.98535156 15.66723633 C-40.1314332 12.92044375 -34.39196904 9.99440012 -28.6796875 6.96484375 C-27.88232178 6.54364258 -27.08495605 6.12244141 -26.26342773 5.68847656 C-23.00655238 3.96382471 -19.76167145 2.22565497 -16.5390625 0.4375 C-15.67796875 -0.02785156 -14.816875 -0.49320312 -13.9296875 -0.97265625 C-13.24261719 -1.35808594 -12.55554688 -1.74351563 -11.84765625 -2.140625 C-7.50940345 -3.46866157 -3.87877343 -1.97353171 0 0 Z " fill="#020202" transform="translate(201.7421875,72.78515625)"/>
  <path d="M0 0 C0.19801127 5.88969302 0.34304089 11.77744404 0.43945312 17.66967773 C0.47964499 19.67295072 0.53421105 21.6759896 0.60351562 23.6784668 C0.70076706 26.56097078 0.74596533 29.44037183 0.78125 32.32421875 C0.82254028 33.21711105 0.86383057 34.11000336 0.90637207 35.029953 C0.9082106 37.58730765 0.82050242 39.5753128 0 42 C-2.39701697 44.30617571 -4.99795543 45.62174623 -8 47 C-9.28170037 47.70568614 -10.55975399 48.41808826 -11.83203125 49.140625 C-13.1565755 49.84803319 -14.48349724 50.55100395 -15.8125 51.25 C-16.53969238 51.63422119 -17.26688477 52.01844238 -18.01611328 52.41430664 C-24.19387559 55.64529606 -30.47853493 58.61899239 -36.79492188 61.56689453 C-42.21491552 64.11228575 -47.53014034 66.80609 -52.8125 69.625 C-60.76562679 73.8494274 -68.750092 78.01032462 -76.77914429 82.08856201 C-78.12580624 82.77497984 -79.47027196 83.46572493 -80.81240845 84.16094971 C-82.70908427 85.14240577 -84.61310068 86.1079719 -86.51953125 87.0703125 C-87.62401611 87.63508301 -88.72850098 88.19985352 -89.86645508 88.78173828 C-93.85514295 90.33246305 -96.73430117 90.84981458 -100.82579041 89.31518555 C-102.95828791 88.32940234 -105.02530901 87.25898286 -107.09765625 86.15234375 C-107.87715134 85.74866577 -108.65664642 85.34498779 -109.45976257 84.92907715 C-112.0001987 83.61006226 -114.53129106 82.27412387 -117.0625 80.9375 C-118.81160311 80.0243767 -120.5612824 79.11235627 -122.31152344 78.20141602 C-125.84681673 76.35981949 -129.37879539 74.5120749 -132.90869141 72.66015625 C-137.56320596 70.22230197 -142.23605397 67.82221818 -146.91796875 65.4375 C-148.90425212 64.42303103 -150.89034783 63.4081954 -152.87643433 62.39334106 C-154.11862642 61.75960923 -155.36156016 61.12732886 -156.60525513 60.49655151 C-158.31773355 59.62683521 -160.02616703 58.74916797 -161.734375 57.87109375 C-162.68538086 57.38568115 -163.63638672 56.90026855 -164.61621094 56.40014648 C-168.58018876 54.07185759 -168.58018876 54.07185759 -170 52 C-170.34057617 48.99731445 -170.34057617 48.99731445 -170.29296875 45.36328125 C-170.2784668 43.41518555 -170.2784668 43.41518555 -170.26367188 41.42773438 C-170.23860585 40.05598361 -170.21321101 38.68423882 -170.1875 37.3125 C-170.1724502 35.92905076 -170.1587623 34.54558599 -170.14648438 33.16210938 C-170.11107223 29.77434793 -170.06168054 26.38736861 -170 23 C-164.71596686 21.63545128 -162.00448092 23.19539176 -157.4375 25.8125 C-155.76779397 26.72662919 -154.0956865 27.63637873 -152.421875 28.54296875 C-151.44541016 29.07325684 -150.46894531 29.60354492 -149.46289062 30.14990234 C-142.9024091 33.65493118 -136.27609405 37.0296717 -129.63723755 40.38339233 C-128.00784312 41.20922309 -126.38092452 42.0399575 -124.75656128 42.87564087 C-122.44101827 44.06663604 -120.11811459 45.2419494 -117.79296875 46.4140625 C-116.74855621 46.95713799 -116.74855621 46.95713799 -115.68304443 47.51118469 C-111.51035312 49.58877008 -108.62772036 50.45294726 -104 50 C-101.23301645 49.02393258 -98.66818991 47.71889044 -96.0612793 46.37915039 C-95.28791733 45.99371063 -94.51455536 45.60827087 -93.71775818 45.21115112 C-91.16400493 43.93473318 -88.6192239 42.64141702 -86.07421875 41.34765625 C-84.28555876 40.4489926 -82.49639077 39.55133942 -80.70674133 38.65464783 C-75.98798833 36.28665402 -71.27677411 33.90401699 -66.5668335 31.51855469 C-62.76798412 29.59750857 -58.96407109 27.68662788 -55.15977764 25.77639103 C-47.22175909 21.79022841 -39.28710278 17.79730575 -31.36206055 13.78540039 C-30.18546639 13.19126642 -30.18546639 13.19126642 -28.98510265 12.58512974 C-25.02169182 10.57378892 -21.08980222 8.51889769 -17.19033813 6.38595581 C-16.41792439 5.96595778 -15.64551065 5.54595976 -14.84969044 5.11323452 C-13.39356111 4.31764707 -11.94216963 3.51329996 -10.49664593 2.69860172 C-6.85929986 0.7129897 -4.17733995 -0.50084514 0 0 Z " fill="#020202" transform="translate(216,116)"/>
</svg>